/* XPM */
static char * exit_close_xpm[] = {
"32 32 10 1",
" 	c #4A3C20",
".	c #625029",
"+	c #8B7141",
"@	c #9C794A",
"#	c #735D31",
"$	c #A3A3A3",
"%	c #A8A8A8",
"&	c #B38C51",
"*	c #B0B0B0",
"=	c #9D9D9D",
"      .      .. .         ..    ",
" +@@@@@+++@@@@@@++++@@@@@@+++@+.",
".++++@@@@++++@+@@@@+++@++@@@@++.",
".@@+@@+++@@+@@@+++@@@@@@@+++@@@.",
".@+++@@@++@@@+++@@@+@+++@@+@+++ ",
" #++# ....#.#++##+# ..##..##+#. ",
".+@@+.$$$%%%&@@+@++.%%%$$%&@++@.",
".@@+@.**%%**&+@+@+@.%%***%@++@+ ",
" +@+@#*$==$$@@+@@+@.***%%*&+@@+.",
" @++@#%$$$%%&@+@+@+#%***%%&@+@+.",
".@+@+.$$%%%%&@+@+@+.$$%$==&@+@@.",
".@+@+.%%%%%$&@@++@+.=$===$&@+@+.",
" .#+##@&&&@&@#+++###&&@@&&@++#. ",
".@@@++++@++@@@@@+@+++++@@@+++@+.",
".++@@+@@@@@++++@@@@+@@+++@@@@@@.",
" @+++@++++@@@@++++@@@@@@@@++++@.",
".@@@@@@@@+++@@@@@@@@++@@+@@+@@+.",
".+@+++@+++@@@+@@++++@@@++++++@@ ",
".+++@@+@@@+++++@@@@++++@@@@@@++.",
" #+## ..#...##++#+# ..##..#+##. ",
".@+@@.%%$$$=&@@+@+@.$%%%$$@@+@+.",
" @+@+.$%%$%%@+@+@+@#%%****&@+@+ ",
".++@+.%%%%**@++@@++.%%%%**@+@++ ",
".@++@#%%%***&@+@+@+#%$$$$%&@@+@.",
".+@+@#$$%%*%&@+@+@+.%%$===&@@+@.",
".+@+@.$%****&@+@+@@.$$%$=$&@+@@ ",
" .#++#&&@&&&@+##++##&&&&@&@+#+# ",
".+++@@@@++@++++@@+++@@@++@++++@.",
" @@++++@@@@@@+@@+@@@++@@@@@+@@@.",
".++@@@@++++@@@++++@+@@@@+@+++@@.",
".@@@@+++@+@@++@@@++@@+++@@@@+++ ",
"    . ..           .   ..       "};
