/* XPM */
static char *b2ffa1f3349541dfd85c9d78164cd8f5fwrUjFoX83Qd2gcH[] = {
/* columns rows colors chars-per-pixel */
"32 32 7 1",
"  c #747474",
". c gray50",
"X c gray56",
"o c #9D9D9D",
"O c gray64",
"+ c gray66",
"@ c gray69",
/* pixels */
".  .. .  XX .XXX. ...XX.  .XXXX.",
" @@@+@++++OOO+++OOOooOO++++++++X",
" +OOOO+OOO+++OO+@@+@@+ooOooO+OO.",
" +++O+++OOO+OO++O+OO+++OooO+OO+ ",
" +OOooooOOOOOoooooOOOOO++++++OOX",
".@+OOooOooO++OoOOOO+O+++OO+++++X",
"XOOO++OOO++++++@@@@@+++OO+OooOOX",
".+@@@@@@++@@+OO++@@+++@@@++OO++X",
"XOOO+@@OooOO++OO++@@@@@++@@OOO+ ",
"XO+++++OOO++OO+++@@++@@@++OO+++.",
".@@@@+OO++++++OO++OOOO+OooOooO@ ",
" +@@+++++++OOOO++OOooOoooOOOOOO ",
" OO+O+@@@@@+O+@@@@@OOOOO+++++++.",
"XOOOOOOO@@+OOO+@+OOOooO+++@@@OO ",
"XOOOoooooOooO++OOO+OO++OOOOO+++ ",
"X++OOoOoOOOOOOOO++++OOOOO++++++.",
"X+OO+++OO+OO+@@@@@@@+O++OO+OOOO.",
"X@@@@@++@@@+++@@@++OOOO+++++OO+.",
".++@@++OO+O+@@++@@++O+@@@++@@++X",
" +@@@@+++++OO+@@++++OOO++@@@OOOX",
" oO+++++OOOoooOoOO+OO+++OO+OOoOX",
".+++OOO++O++OooOO+++++@@@@@@+++X",
".++OO+++++@@@@@+@@++++++@@+OO+@X",
"X++++++++@@@@+++++OO+OOOO+++OOOX",
"X+OO+OOO++@+++OOooO+++OooooOooO.",
".++OooO+@@@@+++OO+++OO+OoOOOOooX",
".@@@@O+OOO++OO++OOO@@+++OO++O@@X",
" @@+++OOO+++++OOOO+++OOOO++OOO+.",
" +O+OO++@@@@@OOO++OO++++@@@@@@@ ",
".OooO+OO+@@+++OOO+++++++++@+@@@ ",
".++OOO+++O+OOooO+@@@@@+O+OOOOO+.",
"  .XXXX.  .XXXXXX.  X..  . .X..."
};
