/* XPM */
static char * steve_xpm[] = {
"32 32 173 2",
"  	c #5B3000",
". 	c #6C400C",
"+ 	c #81541E",
"@ 	c #936932",
"# 	c #956632",
"$ 	c #986733",
"% 	c #825423",
"& 	c #6D4010",
"* 	c #5A2E00",
"= 	c #A67C45",
"- 	c #AA7A46",
"; 	c #6C3F0F",
"> 	c #AA7C49",
", 	c #D0B476",
"' 	c #D3B779",
") 	c #BD8D56",
"! 	c #C18F58",
"~ 	c #FEEFB6",
"{ 	c #FEF5BC",
"] 	c #B99159",
"^ 	c #95662F",
"/ 	c #7F561F",
"( 	c #A47E4A",
"_ 	c #A5824C",
": 	c #BA9A69",
"< 	c #BE8F5D",
"[ 	c #9D824D",
"} 	c #FDFDC2",
"| 	c #8D6A33",
"1 	c #F4E8A8",
"2 	c #FDEDB9",
"3 	c #FEFECC",
"4 	c #FFF2B4",
"5 	c #D8BE87",
"6 	c #AC874F",
"7 	c #FDF7CA",
"8 	c #FEFFD2",
"9 	c #FEFFBC",
"0 	c #E7D79A",
"a 	c #ECD59A",
"b 	c #F0D399",
"c 	c #C09E65",
"d 	c #926B2F",
"e 	c #EAD495",
"f 	c #9D7A4A",
"g 	c #9F7E52",
"h 	c #968755",
"i 	c #E4FDBA",
"j 	c #E6FFC3",
"k 	c #DEF7CA",
"l 	c #F4FFCC",
"m 	c #E4D4A2",
"n 	c #9F793D",
"o 	c #A18145",
"p 	c #A98C5B",
"q 	c #F6E3C3",
"r 	c #FFFAE3",
"s 	c #F3FFE3",
"t 	c #79C46E",
"u 	c #36A134",
"v 	c #2BA42A",
"w 	c #C1F09E",
"x 	c #F4FDC6",
"y 	c #339C2C",
"z 	c #F5FFDD",
"A 	c #7F7F7F",
"B 	c #A68E5D",
"C 	c #F2E3CC",
"D 	c #FDFCF3",
"E 	c #EAFFEA",
"F 	c #6ACE71",
"G 	c #25A72A",
"H 	c #18A924",
"I 	c #B9F8A8",
"J 	c #EFFFCF",
"K 	c #BBF4A3",
"L 	c #17B127",
"M 	c #69C96C",
"N 	c #EFFFE5",
"O 	c #FFF9ED",
"P 	c #FFF7EC",
"Q 	c #8F8F8F",
"R 	c #747474",
"S 	c #D4C897",
"T 	c #DBCBB5",
"U 	c #F2E6DC",
"V 	c #EDE5DA",
"W 	c #DBFCD8",
"X 	c #63BC62",
"Y 	c #1B951C",
"Z 	c #088E09",
"` 	c #17820D",
" .	c #BFEDA2",
"..	c #C5EA9D",
"+.	c #21931B",
"@.	c #0B9712",
"#.	c #129312",
"$.	c #D2C08D",
"%.	c #D4C180",
"&.	c #D5C07E",
"*.	c #E2C181",
"=.	c #E2D4BC",
"-.	c #F5ECE3",
";.	c #ECEBE1",
">.	c #E1FBD8",
",.	c #198C14",
"'.	c #C8E7A9",
").	c #63B55C",
"!.	c #CAB787",
"~.	c #2B8F1E",
"{.	c #D5CBB5",
"].	c #E3DBD2",
"^.	c #DBDCD3",
"/.	c #D5E9CD",
"(.	c #8FCC8A",
"_.	c #4FAA4B",
":.	c #65AB58",
"<.	c #58B053",
"[.	c #81BE7A",
"}.	c #332D19",
"|.	c #333019",
"1.	c #353126",
"2.	c #292627",
"3.	c #22241E",
"4.	c #34432C",
"5.	c #2D4324",
"6.	c #3B4533",
"7.	c #474534",
"8.	c #4B3F33",
"9.	c #315331",
"0.	c #373837",
"a.	c #323435",
"b.	c #2C2B2B",
"c.	c #322A27",
"d.	c #342C32",
"e.	c #343837",
"f.	c #2E3133",
"g.	c #1D1D1D",
"h.	c #211E21",
"i.	c #252225",
"j.	c #2C2C30",
"k.	c #1B213F",
"l.	c #181E3E",
"m.	c #1D2244",
"n.	c #212649",
"o.	c #212749",
"p.	c #31395A",
"q.	c #2E3859",
"r.	c #2C3456",
"s.	c #1F2749",
"t.	c #061D70",
"u.	c #172E84",
"v.	c #274097",
"w.	c #354FA8",
"x.	c #3853AC",
"y.	c #2A429B",
"z.	c #162E88",
"A.	c #091F7A",
"B.	c #001B8D",
"C.	c #0E2CA3",
"D.	c #1D3FB5",
"E.	c #1B40B4",
"F.	c #3154CC",
"G.	c #2F52CC",
"H.	c #2041B9",
"I.	c #001A94",
"J.	c #223FBD",
"K.	c #0E2CA9",
"L.	c #001C9A",
"M.	c #1D3FB9",
"N.	c #1A40B9",
"O.	c #3155D2",
"P.	c #2F54D0",
"        . . . . + + + + @ @ @ # # # # $ + + + % & & & & * * * * ",
"        . . . . + + + + @ @ @ # # # # # + + + % & & & & * * * * ",
"        . . . . + + + + @ @ @ # # # # # + + + % & & & & * * * * ",
"        . . . . + + + + @ @ @ # # # # # + + + % & & & & * * * * ",
". . . . + + + + @ @ @ @ = = = - - - - - $ $ $ $ % % % % ; ; ; ; ",
". . . . + + + + @ @ @ @ = = = - - - - - $ $ $ $ % % % % ; ; ; ; ",
". . . . + + + + @ @ @ @ = = = - - - - - $ $ $ $ % % % % ; ; ; ; ",
". . . . + + + + @ @ @ @ = = = = - - - - $ $ $ $ % % % % ; . . . ",
"+ + + + @ @ @ # - - > = , ' ' ' ) ! ! ! - - - - # # # # + + + + ",
"+ + + + @ @ @ # - > > > ~ { { { ] ) ) ) - - - - ^ ^ ^ ^ + + + + ",
"+ + / / @ @ @ @ > > ( _ ~ { { { : < < < > > > > @ @ @ @ + + + + ",
"+ / / / @ @ @ @ ( [ [ [ { } } } : : : : _ _ _ _ | | | @ + + + + ",
"@ @ @ @ = = > _ 1 { 2 2 3 3 3 3 3 3 3 } ~ 4 4 1 5 5 5 6 @ @ # # ",
"@ @ @ @ = = > _ 2 3 7 } 3 3 3 3 8 8 3 3 9 9 9 1 0 a b c @ @ # $ ",
"d d @ @ = = > _ { 3 3 3 3 3 3 3 8 8 8 3 } 9 9 1 0 0 e : @ @ # $ ",
"d d @ | f g g h i j k j l 3 3 3 8 8 8 l i i i i m m m : | | @ # ",
"= n o p q r r s t u v u w l 3 x 3 x l w y v y t z r r q 0 e e A ",
"= n o B C D D E F G H v I J x } } } l K G L H M N O O C m 0 e A ",
"o n o B C D D E F G H v I l x } } } x K G L H M s O P C m e e Q ",
"o n o B C D D E F G H v K l } } } } } w v L G M s O P C m e e Q ",
"R , ' S T U V W X Y Z `  .x } } } } } ..+.@.#.X k U V T $.%.&.Q ",
"A *.' $.=.-.;.>.X Y Z ,.'.x } } } } } ..` Z #.).>.-.U =.$.%.&.Q ",
"A *.' !.=.;.;.W ).+.#.~...x } } } } } ..` #.,.).k U V T $.%.&.Q ",
"Q !.!.!.{.].^./.(._._.:.'.7 7 3 3 3 3 '.<.<._.[./.].].{.S $.5 Q ",
"}.|.|.|.1.2.3.3.4.5.5.5.6.7.8.7.7.7.7.4.9.9.9.9.6.0.a.1.1.}.}.}.",
"3.3.3.3.3.3.3.2.b.b.2.c.d.d.d.a.e.e.a.a.a.a.e.0.f.f.b.b.b.2.2.2.",
"g.g.g.g.h.h.h.i.i.i.i.i.d.d.d.d.a.a.a.a.f.f.a.f.j.j.j.b.b.2.2.2.",
"k.k.k.l.l.l.l.l.m.m.n.n.o.o.o.o.p.p.q.q.r.r.r.r.o.s.o.o.m.m.m.m.",
"t.t.t.t.u.u.u.u.v.v.v.v.w.w.w.w.w.x.x.x.y.y.y.y.z.z.z.z.A.A.A.A.",
"B.B.B.B.C.C.C.C.D.D.E.E.F.F.F.F.F.F.G.G.H.H.H.H.C.C.C.C.I.I.I.I.",
"I.I.I.I.C.C.C.C.D.D.D.E.F.F.G.G.F.F.G.G.H.J.J.J.K.K.K.K.L.L.L.L.",
"I.I.I.I.K.K.K.K.M.M.N.N.O.O.P.P.F.F.G.F.J.J.J.J.K.K.K.K.L.L.L.L."};
